PathFileType	4	(X/Y/Z)	C:/Users/beibeiliu/ov580/test_trc/capture2\sequence.21_training_dense_right.trc
DataRate	CameraRate	NumFrames	NumMarkers	Units	OrigDataRate	OrigDataStartFrame	OrigNumFrames
120	120	23	19	mm	120	311	355
Frame#	Time	ThumbCMC			ThumbMCP			ThumbIP			ThumbTip			IndexMCP			IndexPIP			IndexTip			MiddleMCP			MiddlePIP			MiddleTip			RingMCP			RingPIP			RingTip			PinkyMCP			PinkyPIP			PinkyTip			BackHand1			BackHand2			BackHand3	
		X0	Y0	Z0	X1	Y1	Z1	X2	Y2	Z2	X3	Y3	Z3	X4	Y4	Z4	X5	Y5	Z5	X6	Y6	Z6	X7	Y7	Z7	X8	Y8	Z8	X9	Y9	Z9	X10	Y10	Z10	X11	Y11	Z11	X12	Y12	Z12	X13	Y13	Z13	X14	Y14	Z14	X15	Y15	Z15	X16	Y16	Z16	X17	Y17	Z17	X18	Y18	Z18	
310	2.58333	151.936	34.1668	15.0185	160.093	21.7857	-13.3853	159.075	17.4919	-41.2526	169.676	21.4885	-63.3108	171.696	72.9114	-44.5817	177.48	67.1087	-65.5638	187.646	58.1197	-87.3464	193.655	58.0489	-40.8451	192.08	27.0415	-44.1412	176.417	25.7468	-9.6617	210.888	47.4244	-31.1174	195.519	19.8855	-23.1021	185.013	32.965	5.23398	222.124	39.9639	-20.9557	203.363	20.4231	-8.43327	194.007	36.6295	18.0372	202.885	73.5527	17.9557	197.685	60.7091	47.5962	170.861	68.7891	24.5415	
311	2.59167	155.602	43.4228	15.2178	158.502	28.5775	-13.0425	163.11	28.6207	-39.4289	170.426	29.2904	-64.0187	176.715	82.9794	-42.6817	180.752	76.6841	-65.4126	189.779	67.8805	-93.1809	194.518	66.3537	-43.1145	193.117	35.4278	-44.7683	180.382	33.9972	-10.6446	209.481	55.8411	-31.7571	198.446	27.1376	-22.2998	187.774	42.3646	6.18721	225.776	49.9398	-18.5095	209.656	25.5505	-7.38853	194.92	43.9913	15.7144	206.71	78.6764	18.4834	201.907	68.4863	47.0242	174.091	75.7202	26.2472	
312	2.6	155.013	51.4331	14.8193	159.141	39.4997	-15.8673	161.989	38.3355	-45.4167	173.989	41.8329	-66.8635	175.898	93.4253	-44.5503	183.984	87.8007	-68.1056	192.077	82.0826	-88.2774	196.136	77.2621	-42.3583	191.596	45.2629	-44.9492	180.898	45.2676	-10.6868	212.524	62.5182	-34.2029	200.219	38.1891	-24.2431	188.42	52.2707	6.2063	222.911	58.2736	-21.6786	207.285	37.5646	-9.58636	198.85	53.3258	19.7935	211.795	89.1105	20.7132	199.87	77.5554	44.8753	172.617	87.6874	24.9765	
313	2.60833	156.693	63.2215	11.7587	156.653	48.4978	-18.3878	160.607	48.9405	-46.2245	169.506	51.0953	-69.44	179.778	103.832	-40.9848	181.165	98.7688	-68.4727	191.501	94.3409	-89.1736	201.314	86.5533	-42.0111	193.86	56.0175	-43.9127	180.224	55.6697	-10.0785	215.776	75.5685	-31.5748	201.973	47.0634	-25.3672	190.115	58.3134	5.10611	224.404	67.331	-21.7051	205.805	46.767	-10.5327	198.899	57.6701	18.7793	209.816	97.645	17.0245	203.984	83.2321	50.2172	175.965	94.8435	26.6497	
314	2.61667	150.667	70.529	13.1632	156.671	58.7896	-17.0198	162.775	62.0098	-48.346	168.637	63.3007	-70.0657	176.98	115.548	-43.5036	179.542	111.459	-65.388	190.665	105.829	-88.3301	197.462	98.1992	-41.5155	189.023	65.877	-43.6264	182.438	64.9595	-10.306	212.392	84.8265	-32.917	198.145	59.4818	-27.9778	185.912	69.4861	4.02052	221.764	81.1691	-20.4069	205.541	56.9032	-13.2956	192.874	67.6021	14.2095	212.088	105.618	18.3946	198.97	91.652	45.7871	172.544	103.213	26.6987	
315	2.625	151.034	80.2992	14.8825	153.617	68.8659	-17.4277	158.34	71.1285	-46.0358	161.254	72.1159	-70.4085	175.932	126.152	-39.4313	180.837	122.759	-61.6871	187.324	118.575	-90.8764	193.512	110.185	-39.0696	188.581	76.9608	-44.1809	175.363	75.4934	-12.4139	210.065	93.538	-34.6467	196.318	69.4718	-29.0583	183.078	78.9655	3.78551	219.535	87.037	-23.6524	201.956	66.9804	-13.8434	193.24	78.1448	17.6647	208.625	114.918	19.2012	199.188	97.5926	48.0072	172.758	114.151	27.996	
316	2.63333	146.303	89.6055	15.4001	151.659	80.6958	-18.337	150.485	80.2001	-44.3077	156.524	83.5729	-70.0318	169.773	136.505	-40.1786	173.306	132.837	-64.7732	183.65	128.854	-87.0853	187.801	118.838	-39.4621	183.303	89.9015	-46.7216	173.449	83.6526	-9.70896	203.203	104.013	-33.1017	191.083	76.8159	-27.9131	182.752	85.5873	6.99773	214.596	95.331	-23.5257	199.508	74.3682	-16.8152	189.432	83.7708	17.1341	205.491	119.365	23.98	197.156	104.174	52.0141	168.234	121.676	29.1141	
317	2.64167	142.985	97.4898	13.6682	142.09	88.7101	-20.5065	143.99	90.3284	-49.1898	153.756	94.5254	-66.7913	165.183	145.89	-36.5563	168.178	143.012	-58.6558	173.96	138.965	-82.1166	184.618	125.919	-40.3574	178.311	96.0164	-43.5512	168.101	92.1528	-8.15857	196.272	116.078	-30.1996	184.131	84.5509	-26.6809	175.689	93.9396	5.5613	211.399	104.44	-23.0979	192.838	82.1247	-16.5196	182.575	92.1277	12.3938	203.949	128.269	21.5872	195.681	111.179	50.2124	165.905	126.771	29.9085	
318	2.65	136.431	104.801	14.7602	135.576	93.3716	-15.1259	138.034	97.286	-45.8112	144.19	100.116	-65.5057	159.385	152.019	-32.8761	162.494	148.899	-58.8034	167.83	145.889	-83.5356	177.747	132.538	-37.2941	167.589	105.538	-44.2512	159.124	97.679	-6.44029	191.138	120.768	-29.3057	174.155	92.7973	-27.0636	166.614	99.6841	5.82372	204.269	110.407	-22.8281	188.347	85.8809	-15.3151	176.746	96.9581	13.7555	192.781	132.597	23.3215	188.094	114.978	48.6146	162.838	131.265	32.4336	
319	2.65833	126.882	103.771	20.0456	128.574	97.6936	-14.9143	127.309	100.798	-43.2	131.948	103.559	-64.9839	149.86	155.358	-27.6034	150.799	153.79	-52.9601	152.669	151.719	-82.0926	164.816	139.456	-32.9782	156.85	108.206	-41.1903	149.2	100.381	-9.29027	177.85	124.837	-31.5392	169.499	96.0265	-26.9173	161.818	101.97	8.01885	195.796	117.066	-19.7184	179.77	92.6375	-15.833	169.199	98.4863	13.4952	185.168	136.887	23.9743	182.799	117.082	52.5042	153.4	133.327	35.8912	
320	2.66667	118.797	109.171	18.5365	118.884	99.503	-11.7851	118.973	103.03	-39.4981	122.612	108.416	-62.6972	139.612	158.631	-27.1948	136.469	158.624	-53.5245	141.727	155.707	-78.0389	154.584	141.266	-34.9757	147.772	112.702	-42.0163	140.538	103.587	-6.29795	172.419	126.953	-30.0293	161.012	98.4788	-25.2736	152.787	102.047	8.54595	184.097	122.498	-19.1537	169.745	97.1178	-16.4106	161.16	101.661	17.459	175.247	139.079	25.4899	173.568	118.583	52.0244	142.503	134.866	39.7528	
321	2.675	109.791	106.064	23.5648	108.755	99.8127	-8.83555	106.456	104.156	-38.3164	112.695	110.994	-61.7681	126.565	158.923	-24.1682	127.586	157.924	-53.5935	128.801	155.935	-76.0098	148.204	140.864	-33.307	141.314	112.536	-39.245	135.201	102.844	-3.68468	158.323	130.178	-26.8486	149.775	99.4409	-24.9171	142.195	99.7747	5.11423	172.475	119.831	-20.8382	160.326	96.0041	-13.7728	151.971	102.961	18.4443	167.432	140.853	28.0383	164.922	122.466	53.0805	137.814	135.965	39.1392	
322	2.68333	101.095	105.624	24.1023	102.263	99.804	-7.08235	98.619	103.656	-35.9088	104.504	109.635	-55.0081	118.051	156.349	-20.7014	114.612	156.782	-50.3485	120.702	153.809	-73.1797	134.101	140.403	-30.979	128.124	110.617	-38.185	122.8	101.716	-0.803534	150.161	126.196	-27.5391	139.531	97.5141	-21.8959	133.698	98.7394	10.1963	166.518	117.256	-20.8434	150.895	96.605	-13.8618	146.575	101.32	21.4653	163.015	138.666	27.6617	159.247	121.165	53.1381	129.786	131.462	43.3538	
323	2.69167	94.2364	100.546	28.5065	92.2055	96.7587	-5.35856	90.1955	98.7243	-29.0136	93.8145	105.965	-54.7353	107.41	154.45	-20.5167	107.125	153.839	-47.7044	108.293	150.615	-74.227	127.756	138.548	-26.7489	117.913	106.754	-35.7752	114.82	96.06	-3.85991	142.46	125.136	-23.9442	128.189	95.9445	-21.7183	127.563	92.3687	10.2031	156.99	114.669	-19.2511	139.626	92.7306	-11.3925	136.539	97.0629	22.3853	149.706	135.708	29.8758	148.727	117.998	54.8418	118.696	128.813	47.1804	
324	2.7	86.0629	95.9031	28.6136	80.2299	90.0417	-4.2754	81.1665	92.5	-28.8931	83.2776	98.3065	-52.8216	95.3726	148.153	-18.4888	93.4426	148.142	-47.081	97.7357	145.086	-73.9756	115.877	131.894	-26.6393	109.131	100.493	-34.6917	106.935	88.8664	-4.59814	131.978	118.761	-24.0893	124.407	88.4182	-22.2061	117.309	86.7954	11.2528	144.177	110.722	-17.9571	132.928	86.1983	-9.00187	129.488	91.0242	19.8785	145.303	127.321	30.1984	142.48	111.866	55.1144	110.468	124.757	43.3128	
325	2.70833	78.9833	86.4316	34.3734	73.0986	80.2984	-0.499154	70.446	82.355	-26.7585	74.4945	89.0338	-51.4735	85.61	140.205	-18.6358	87.4582	139.664	-42.455	88.4469	135.478	-69.0963	106.022	123.405	-26.2145	100.92	93.3532	-33.654	100.789	80.8741	-2.39907	121.326	111.403	-21.6259	113.64	83.5197	-21.4553	112.519	80.4509	14.7187	138.739	101.076	-17.633	124.124	78.4209	-7.32278	121.344	89.1594	23.4804	135.646	122.555	29.8399	136.548	105.248	54.7914	102.404	118.353	45.7171	
326	2.71667	71.1714	75.9365	37.4088	68.8417	70.2985	1.63563	66.0194	74.6512	-25.8814	70.2815	79.4883	-46.7381	82.4032	130.491	-18.3018	79.6121	129.697	-40.6442	76.6163	125.851	-66.1615	101.196	115.346	-22.4007	96.7105	82.3881	-32.0597	93.2438	71.1357	1.36529	116.626	102.843	-19.2409	110.48	70.7519	-19.279	106.103	70.1256	15.155	131.864	92.4628	-17.0362	117.853	69.3535	-4.04225	115.436	76.0321	25.3146	126.862	113.46	31.727	131.751	96.431	58.7761	100.813	107.027	50.0677	
327	2.725	70.9486	68.3469	36.4246	60.584	57.041	6.32421	60.8296	60.8898	-19.1642	65.0474	68.0067	-45.8112	72.8724	119.365	-13.2411	71.5603	118.567	-40.4626	69.1334	114.122	-67.5147	95.8119	102.947	-24.0777	90.152	74.4126	-33.5082	90.6038	61.3684	3.75248	111.879	89.6158	-20.9187	101.582	62.3713	-18.0941	100.586	60.4632	16.4441	126.633	82.8102	-14.9199	115.145	58.5047	-3.52038	111.788	71.1651	27.5038	125.674	104.45	31.7714	122.837	89.5595	59.6051	94.5564	99.6933	48.7677	
328	2.73333	66.7272	55.3282	39.4703	62.2081	47.2775	8.02042	56.6667	48.0388	-16.9	56.3022	51.6598	-43.5124	66.5344	105.906	-12.1541	64.0293	105.654	-40.6657	63.7316	100.143	-66.3376	90.6758	91.6993	-22.79	84.0856	59.0072	-29.2511	87.2964	47.9831	3.93611	102.327	77.98	-20.7171	101.393	48.966	-15.5446	98.6793	52.0026	21.6315	120.397	74.4808	-11.8548	109.068	48.3164	-0.702307	107.417	55.2921	27.1041	118.663	93.8172	33.3683	123.007	78.504	58.8879	88.8819	87.1813	49.1052	
329	2.74167	65.3448	43.4306	42.5974	60.6273	33.1787	10.6202	52.4801	34.1934	-17.1076	57.1429	39.9131	-39.3233	65.2207	93.0733	-10.1879	59.3412	92.3372	-40.6108	62.798	85.9651	-68.5744	85.7644	76.8856	-23.6468	83.8656	45.2201	-27.2255	82.4542	36.3955	7.09816	104.647	68.0599	-16.7023	100.93	35.6001	-11.3753	96.6642	38.0846	19.7259	120.414	62.3051	-12.2113	113.167	34.521	-0.766969	107.46	47.9897	28.4969	112.929	84.0868	34.4538	119.784	71.0074	60.7946	83.3696	77.3366	53.6274	
330	2.75	64.882	34.2433	40.2655	58.1579	21.1192	11.0429	56.1873	22.5109	-13.7245	55.0285	25.8221	-41.8846	63.7609	80.423	-11.0201	59.2806	78.1466	-40.3814	58.8387	72.465	-64.9113	81.5983	65.7227	-22.3914	82.8559	35.3198	-28.1256	86.3805	24.3394	6.62179	101.167	54.3181	-18.8265	94.8603	24.3899	-9.12511	95.9455	29.9244	23.6951	120.866	52.6373	-11.0713	111.279	25.5354	-0.799808	106.216	36.6537	29.8767	111.657	72.919	35.1814	119.641	61.2404	60.3367	83.2203	64.8733	53.9737	
331	2.75833	63.396	19.2772	46.0153	60.1879	10.068	9.48493	57.219	10.9161	-16.7098	54.6833	11.2933	-38.9297	59.6887	68.9799	-14.3315	55.7235	64.8274	-41.6076	61.4018	60.3857	-63.2948	81.2525	53.4177	-21.4604	85.5784	21.1948	-24.55	84.9214	14.3353	9.70122	102.008	45.3684	-15.3991	98.683	14.6787	-10.9511	98.7743	17.1382	22.1803	117.396	39.9311	-11.3605	110.566	14.314	0.0936878	107.761	24.2569	29.6795	115.543	64.6402	33.2866	120.423	48.3981	63.1415	85.7856	55.9135	50.3524	
332	2.76667	70.4512	11.9251	44.4881	65.2419	-3.40637	14.7087	59.5637	-1.75739	-14.6488	59.2066	0.237645	-39.2275	61.7461	58.2607	-12.5464	62.9346	55.1775	-38.4422	64.5525	48.3288	-63.1007	84.1557	41.8205	-20.5521	86.0568	9.81889	-24.4855	89.6875	6.7341	14.4028	105.229	32.4416	-18.3725	103.034	4.18487	-9.63458	97.6642	10.6501	24.6693	121.485	27.3991	-12.7769	111.37	4.80681	2.78569	111.882	20.2526	31.7146	117.269	57.4124	30.7646	121.246	41.5515	62.2984	88.6048	45.6863	54.1156	
